<svg width="512" height="512" viewBox="0 0 512 512" fill="none" xmlns="http://www.w3.org/2000/svg">
  <!-- Yellow Rounded Triangle (Play Button Shape) -->
  <path d="M110 50 C 70 50 40 80 40 120 L 40 392 C 40 432 70 462 110 462 C 125 462 140 458 153 450 L 430 290 C 460 270 460 242 430 222 L 153 62 C 140 54 125 50 110 50 Z" fill="#FFFF00"/>
  
  <!-- Black TV Body (Shifted -45 X, +20 Y) -->
  <rect x="85" y="180" width="220" height="150" rx="40" fill="black"/>
  
  <!-- Antennas (Fixed Overlap) -->
  <!-- Shortened and moved tip inwards -->
  <path d="M145 180 L 128 145" stroke="black" stroke-width="20" stroke-linecap="round"/>
  <path d="M245 180 L 262 145" stroke="black" stroke-width="20" stroke-linecap="round"/>
  
  <!-- TV Screen Details (Shifted) -->
  <!-- Inner Play Triangle (Yellow) -->
  <path d="M155 220 L 155 290 L 215 255 Z" fill="#FFFF00" stroke="#FFFF00" stroke-width="5" stroke-linejoin="round"/>
  
  <!-- Dots (Yellow) -->
  <circle cx="245" cy="230" r="12" fill="#FFFF00"/>
  <circle cx="245" cy="270" r="12" fill="#FFFF00"/>
</svg>
