<svg xmlns="http://www.w3.org/2000/svg" xmlns:xlink="http://www.w3.org/1999/xlink" width="1920" zoomAndPan="magnify" viewBox="0 0 1440 809.999993" height="1080" preserveAspectRatio="xMidYMid meet" version="1.0"><defs><g/><clipPath id="aeb92b3ebb"><path d="M 23 481 L 25 481 L 25 482.359375 L 23 482.359375 Z M 23 481 " clip-rule="nonzero"/></clipPath><clipPath id="f6cab17452"><path d="M 1.027344 220 L 5 220 L 5 222 L 1.027344 222 Z M 1.027344 220 " clip-rule="nonzero"/></clipPath><clipPath id="d57fe8d7d1"><path d="M 389 291 L 389.878906 291 L 389.878906 293 L 389 293 Z M 389 291 " clip-rule="nonzero"/></clipPath><clipPath id="a4c3b793ed"><path d="M 22 1.777344 L 358 1.777344 L 358 391 L 22 391 Z M 22 1.777344 " clip-rule="nonzero"/></clipPath><clipPath id="d4ad515062"><path d="M 100.316406 175.515625 L 242.535156 175.515625 L 242.535156 317.734375 L 100.316406 317.734375 Z M 100.316406 175.515625 " clip-rule="nonzero"/></clipPath><clipPath id="96762e1021"><path d="M 389 56 L 1396.199219 56 L 1396.199219 437 L 389 437 Z M 389 56 " clip-rule="nonzero"/></clipPath><clipPath id="06e98c9c21"><rect x="0" width="1008" y="0" height="381"/></clipPath><clipPath id="f4c6171571"><path d="M 0.960938 0.71875 L 121.679688 0.71875 L 121.679688 64.558594 L 0.960938 64.558594 Z M 0.960938 0.71875 " clip-rule="nonzero"/></clipPath><clipPath id="89d96b8bbe"><rect x="0" width="122" y="0" height="65"/></clipPath><clipPath id="183bea21fb"><path d="M 0.480469 0.519531 L 121.199219 0.519531 L 121.199219 64.359375 L 0.480469 64.359375 Z M 0.480469 0.519531 " clip-rule="nonzero"/></clipPath><clipPath id="c1306c467b"><rect x="0" width="122" y="0" height="65"/></clipPath><clipPath id="8c890d8950"><rect x="0" width="1397" y="0" height="483"/></clipPath></defs><g transform="matrix(1, 0, 0, 1, 21, 163)"><g clip-path="url(#8c890d8950)"><g clip-path="url(#aeb92b3ebb)"><path fill="#38b6ff" d="M 24.28125 482.078125 L 24.851562 481.753906 C 24.851562 481.753906 24.246094 482.078125 23.789062 482.304688 C 23.929688 482.21875 24.160156 482.140625 24.277344 482.078125 Z M 24.28125 482.078125 " fill-opacity="1" fill-rule="nonzero"/></g><g clip-path="url(#f6cab17452)"><path fill="#38b6ff" d="M 4.308594 220.800781 C 3.449219 220.859375 2.707031 221.097656 1.882812 221.238281 C 1.648438 221.316406 1.410156 221.359375 1.167969 221.4375 L 4.3125 220.800781 Z M 4.308594 220.800781 " fill-opacity="1" fill-rule="nonzero"/></g><g clip-path="url(#d57fe8d7d1)"><path fill="#38b6ff" d="M 389.097656 292.253906 L 389.695312 291.550781 L 389.414062 292.34375 Z M 389.097656 292.253906 " fill-opacity="1" fill-rule="nonzero"/></g><g clip-path="url(#a4c3b793ed)"><path fill="#38b6ff" d="M 340.375 134.308594 L 289.582031 134.308594 C 280.394531 120.378906 259.941406 109.597656 234.542969 105.558594 L 273.835938 3.75 L 221.789062 104.144531 C 218.671875 103.941406 215.507812 103.832031 212.300781 103.832031 C 209.101562 103.832031 205.949219 103.9375 202.847656 104.140625 L 149.753906 1.761719 L 189.828125 105.597656 C 164.539062 109.664062 144.179688 120.417969 135.015625 134.308594 L 39.632812 134.308594 C 30.402344 134.308594 22.933594 141.5 22.933594 150.355469 L 22.933594 359.140625 C 22.933594 368.007812 30.402344 375.199219 39.632812 375.199219 L 60.636719 375.199219 C 62.105469 382.421875 69.507812 387.933594 78.441406 387.933594 C 87.371094 387.933594 94.769531 382.425781 96.238281 375.199219 L 287.355469 375.199219 C 287.355469 375.222656 287.351562 375.242188 287.351562 375.269531 C 287.351562 383.757812 295.460938 390.640625 305.441406 390.640625 C 315.429688 390.640625 323.527344 383.753906 323.527344 375.269531 C 323.527344 375.242188 323.523438 375.222656 323.523438 375.199219 L 340.375 375.199219 C 349.605469 375.199219 357.078125 368.003906 357.078125 359.140625 L 357.078125 150.367188 C 357.089844 141.511719 349.617188 134.320312 340.390625 134.320312 Z M 293.175781 318 C 293.175781 324.167969 287.734375 329.722656 281.03125 330.296875 C 207.929688 336.390625 134.777344 336.390625 61.664062 330.296875 C 54.945312 329.722656 49.511719 324.167969 49.511719 318 C 49.496094 269.523438 49.511719 221.066406 49.511719 172.601562 C 49.511719 166.410156 54.945312 160.882812 61.664062 160.296875 C 134.769531 154.207031 207.929688 154.207031 281.03125 160.296875 C 287.734375 160.882812 293.175781 166.410156 293.175781 172.601562 Z M 304.535156 186.261719 C 304.535156 176.269531 311.226562 168.171875 319.46875 168.171875 C 327.703125 168.171875 334.386719 176.269531 334.386719 186.261719 C 334.386719 196.246094 327.707031 204.34375 319.46875 204.34375 C 311.214844 204.34375 304.53125 196.253906 304.53125 186.261719 Z M 320.824219 256.808594 C 312.574219 256.808594 305.898438 248.695312 305.898438 238.710938 C 305.898438 228.730469 312.574219 220.621094 320.824219 220.621094 C 329.066406 220.621094 335.753906 228.734375 335.753906 238.710938 C 335.753906 248.6875 329.070312 256.800781 320.828125 256.800781 Z M 320.824219 256.808594 " fill-opacity="1" fill-rule="nonzero"/></g><path fill="#ffffff" d="M 281.035156 160.296875 C 207.933594 154.210938 134.78125 154.210938 61.667969 160.296875 C 54.949219 160.882812 49.515625 166.414062 49.515625 172.605469 C 49.515625 221.0625 49.5 269.523438 49.515625 318 C 49.515625 324.167969 54.949219 329.722656 61.667969 330.300781 C 134.773438 336.390625 207.933594 336.390625 281.035156 330.300781 C 287.738281 329.722656 293.179688 324.167969 293.179688 318 L 293.179688 172.617188 C 293.179688 166.421875 287.734375 160.886719 281.039062 160.300781 Z M 319.457031 204.34375 C 327.691406 204.34375 334.378906 196.25 334.378906 186.261719 C 334.378906 176.269531 327.695312 168.171875 319.457031 168.171875 C 311.21875 168.171875 304.523438 176.269531 304.523438 186.261719 C 304.535156 196.253906 311.21875 204.34375 319.460938 204.34375 Z M 320.824219 220.621094 C 312.574219 220.621094 305.898438 228.734375 305.898438 238.710938 C 305.898438 248.695312 312.574219 256.808594 320.824219 256.808594 C 329.066406 256.808594 335.753906 248.695312 335.753906 238.710938 C 335.753906 228.730469 329.070312 220.617188 320.828125 220.617188 Z M 320.824219 220.621094 " fill-opacity="1" fill-rule="nonzero"/><g clip-path="url(#d4ad515062)"><path fill="#ff914d" d="M 242.550781 246.632812 C 242.550781 247.796875 242.523438 248.960938 242.464844 250.121094 C 242.40625 251.285156 242.320312 252.445312 242.207031 253.605469 C 242.09375 254.761719 241.953125 255.917969 241.78125 257.070312 C 241.609375 258.21875 241.410156 259.367188 241.183594 260.507812 C 240.957031 261.648438 240.703125 262.785156 240.417969 263.914062 C 240.136719 265.042969 239.824219 266.164062 239.488281 267.277344 C 239.148438 268.390625 238.785156 269.496094 238.394531 270.59375 C 238 271.6875 237.582031 272.773438 237.136719 273.847656 C 236.691406 274.925781 236.21875 275.988281 235.722656 277.039062 C 235.226562 278.09375 234.703125 279.132812 234.152344 280.15625 C 233.605469 281.183594 233.03125 282.195312 232.433594 283.195312 C 231.835938 284.191406 231.210938 285.175781 230.566406 286.144531 C 229.917969 287.113281 229.25 288.0625 228.554688 288.996094 C 227.863281 289.933594 227.144531 290.851562 226.40625 291.75 C 225.667969 292.648438 224.910156 293.53125 224.128906 294.390625 C 223.347656 295.253906 222.542969 296.097656 221.722656 296.921875 C 220.898438 297.742188 220.054688 298.546875 219.191406 299.328125 C 218.332031 300.109375 217.449219 300.867188 216.550781 301.609375 C 215.648438 302.347656 214.734375 303.0625 213.796875 303.753906 C 212.863281 304.449219 211.910156 305.117188 210.945312 305.765625 C 209.976562 306.410156 208.992188 307.035156 207.996094 307.632812 C 206.996094 308.230469 205.984375 308.804688 204.957031 309.351562 C 203.929688 309.902344 202.890625 310.425781 201.839844 310.921875 C 200.789062 311.417969 199.722656 311.890625 198.648438 312.335938 C 197.574219 312.78125 196.488281 313.199219 195.390625 313.59375 C 194.296875 313.984375 193.191406 314.351562 192.078125 314.6875 C 190.964844 315.027344 189.84375 315.335938 188.714844 315.617188 C 187.585938 315.902344 186.449219 316.15625 185.308594 316.382812 C 184.167969 316.609375 183.019531 316.808594 181.867188 316.980469 C 180.71875 317.152344 179.5625 317.292969 178.40625 317.40625 C 177.246094 317.523438 176.085938 317.609375 174.921875 317.664062 C 173.761719 317.722656 172.597656 317.75 171.433594 317.75 C 170.269531 317.75 169.105469 317.722656 167.945312 317.664062 C 166.78125 317.609375 165.621094 317.523438 164.464844 317.40625 C 163.304688 317.292969 162.148438 317.152344 161 316.980469 C 159.847656 316.808594 158.699219 316.609375 157.558594 316.382812 C 156.417969 316.15625 155.28125 315.902344 154.152344 315.617188 C 153.023438 315.335938 151.902344 315.027344 150.789062 314.6875 C 149.675781 314.351562 148.570312 313.984375 147.476562 313.59375 C 146.378906 313.199219 145.292969 312.78125 144.21875 312.335938 C 143.144531 311.890625 142.078125 311.417969 141.027344 310.921875 C 139.976562 310.425781 138.9375 309.902344 137.910156 309.351562 C 136.882812 308.804688 135.871094 308.230469 134.871094 307.632812 C 133.875 307.035156 132.890625 306.410156 131.921875 305.765625 C 130.957031 305.117188 130.003906 304.449219 129.070312 303.753906 C 128.132812 303.0625 127.21875 302.347656 126.316406 301.609375 C 125.417969 300.867188 124.535156 300.109375 123.675781 299.328125 C 122.8125 298.546875 121.96875 297.742188 121.148438 296.921875 C 120.324219 296.097656 119.519531 295.253906 118.738281 294.390625 C 117.957031 293.53125 117.199219 292.648438 116.460938 291.75 C 115.722656 290.851562 115.003906 289.933594 114.3125 288.996094 C 113.617188 288.0625 112.949219 287.113281 112.300781 286.144531 C 111.65625 285.175781 111.03125 284.191406 110.433594 283.195312 C 109.835938 282.195312 109.261719 281.183594 108.714844 280.15625 C 108.164062 279.132812 107.640625 278.09375 107.144531 277.039062 C 106.648438 275.988281 106.175781 274.925781 105.730469 273.847656 C 105.285156 272.773438 104.867188 271.6875 104.472656 270.59375 C 104.082031 269.496094 103.71875 268.390625 103.378906 267.277344 C 103.042969 266.164062 102.730469 265.042969 102.449219 263.914062 C 102.164062 262.785156 101.910156 261.648438 101.683594 260.507812 C 101.457031 259.367188 101.257812 258.21875 101.085938 257.070312 C 100.914062 255.917969 100.773438 254.761719 100.660156 253.605469 C 100.546875 252.445312 100.460938 251.285156 100.402344 250.121094 C 100.34375 248.960938 100.316406 247.796875 100.316406 246.632812 C 100.316406 245.46875 100.34375 244.304688 100.402344 243.144531 C 100.460938 241.980469 100.546875 240.820312 100.660156 239.664062 C 100.773438 238.503906 100.914062 237.351562 101.085938 236.199219 C 101.257812 235.046875 101.457031 233.902344 101.683594 232.757812 C 101.910156 231.617188 102.164062 230.484375 102.449219 229.351562 C 102.730469 228.222656 103.042969 227.101562 103.378906 225.988281 C 103.71875 224.875 104.082031 223.769531 104.472656 222.675781 C 104.867188 221.578125 105.285156 220.492188 105.730469 219.417969 C 106.175781 218.34375 106.648438 217.277344 107.144531 216.226562 C 107.640625 215.175781 108.164062 214.136719 108.714844 213.109375 C 109.261719 212.082031 109.835938 211.070312 110.433594 210.070312 C 111.03125 209.074219 111.65625 208.089844 112.300781 207.125 C 112.949219 206.15625 113.617188 205.203125 114.3125 204.269531 C 115.003906 203.335938 115.722656 202.417969 116.460938 201.515625 C 117.199219 200.617188 117.957031 199.738281 118.738281 198.875 C 119.519531 198.011719 120.324219 197.167969 121.148438 196.347656 C 121.96875 195.523438 122.8125 194.722656 123.675781 193.9375 C 124.535156 193.15625 125.417969 192.398438 126.316406 191.660156 C 127.21875 190.921875 128.132812 190.207031 129.070312 189.511719 C 130.003906 188.820312 130.957031 188.148438 131.921875 187.503906 C 132.890625 186.855469 133.875 186.234375 134.871094 185.632812 C 135.871094 185.035156 136.882812 184.460938 137.910156 183.914062 C 138.9375 183.367188 139.976562 182.84375 141.027344 182.34375 C 142.078125 181.847656 143.144531 181.375 144.21875 180.929688 C 145.292969 180.484375 146.378906 180.066406 147.476562 179.675781 C 148.570312 179.28125 149.675781 178.917969 150.789062 178.578125 C 151.902344 178.242188 153.023438 177.929688 154.152344 177.648438 C 155.28125 177.363281 156.417969 177.109375 157.558594 176.882812 C 158.699219 176.65625 159.847656 176.457031 161 176.285156 C 162.148438 176.117188 163.304688 175.972656 164.464844 175.859375 C 165.621094 175.746094 166.78125 175.660156 167.945312 175.601562 C 169.105469 175.546875 170.269531 175.515625 171.433594 175.515625 C 172.597656 175.515625 173.761719 175.546875 174.921875 175.601562 C 176.085938 175.660156 177.246094 175.746094 178.40625 175.859375 C 179.5625 175.972656 180.71875 176.117188 181.867188 176.285156 C 183.019531 176.457031 184.167969 176.65625 185.308594 176.882812 C 186.449219 177.109375 187.585938 177.363281 188.714844 177.648438 C 189.84375 177.929688 190.964844 178.242188 192.078125 178.578125 C 193.191406 178.917969 194.296875 179.28125 195.390625 179.675781 C 196.488281 180.066406 197.574219 180.484375 198.648438 180.929688 C 199.722656 181.375 200.789062 181.847656 201.839844 182.34375 C 202.890625 182.84375 203.929688 183.367188 204.957031 183.914062 C 205.984375 184.460938 206.996094 185.035156 207.996094 185.632812 C 208.992188 186.234375 209.976562 186.855469 210.945312 187.503906 C 211.910156 188.148438 212.863281 188.820312 213.796875 189.511719 C 214.734375 190.207031 215.648438 190.921875 216.550781 191.660156 C 217.449219 192.398438 218.332031 193.15625 219.191406 193.9375 C 220.054688 194.722656 220.898438 195.523438 221.722656 196.347656 C 222.542969 197.167969 223.347656 198.011719 224.128906 198.875 C 224.910156 199.738281 225.667969 200.617188 226.40625 201.515625 C 227.144531 202.417969 227.863281 203.335938 228.554688 204.269531 C 229.25 205.203125 229.917969 206.15625 230.566406 207.125 C 231.210938 208.089844 231.835938 209.074219 232.433594 210.070312 C 233.03125 211.070312 233.605469 212.082031 234.152344 213.109375 C 234.703125 214.136719 235.226562 215.175781 235.722656 216.226562 C 236.21875 217.277344 236.691406 218.34375 237.136719 219.417969 C 237.582031 220.492188 238 221.578125 238.394531 222.675781 C 238.785156 223.769531 239.148438 224.875 239.488281 225.988281 C 239.824219 227.101562 240.136719 228.222656 240.417969 229.351562 C 240.703125 230.484375 240.957031 231.617188 241.183594 232.757812 C 241.410156 233.902344 241.609375 235.046875 241.78125 236.199219 C 241.953125 237.351562 242.09375 238.503906 242.207031 239.664062 C 242.320312 240.820312 242.40625 241.980469 242.464844 243.144531 C 242.523438 244.304688 242.550781 245.46875 242.550781 246.632812 Z M 242.550781 246.632812 " fill-opacity="1" fill-rule="nonzero"/></g><path fill="#ffffff" d="M 138.792969 225.15625 L 175.273438 246.207031 C 177.265625 247.34375 177.265625 250.1875 175.273438 251.328125 L 138.792969 272.378906 C 136.800781 273.515625 134.382812 272.09375 134.382812 269.816406 L 134.382812 227.714844 C 134.3125 225.441406 136.800781 224.019531 138.792969 225.15625 Z M 138.792969 225.15625 " fill-opacity="1" fill-rule="nonzero"/><path fill="#ffffff" d="M 181.175781 225.9375 L 217.660156 246.988281 C 219.652344 248.125 219.652344 250.972656 217.660156 252.109375 L 181.175781 273.160156 C 179.183594 274.296875 176.765625 272.875 176.765625 270.601562 L 176.765625 228.5 C 176.695312 226.222656 179.183594 224.800781 181.175781 225.9375 Z M 181.175781 225.9375 " fill-opacity="1" fill-rule="nonzero"/><g clip-path="url(#96762e1021)"><g transform="matrix(1, 0, 0, 1, 389, 56)"><g clip-path="url(#06e98c9c21)"><g fill="#ff914d" fill-opacity="1"><g transform="translate(0.853677, 291.981381)"><g><path d="M 47.796875 -59.671875 C 47.796875 -43.265625 54.769531 -35.0625 68.71875 -35.0625 C 83.988281 -35.0625 94.265625 -40.34375 99.546875 -50.90625 C 101.429688 -54.675781 102.375 -59.53125 102.375 -65.46875 C 102.375 -71.40625 100.957031 -76.921875 98.125 -82.015625 C 93.414062 -90.117188 85.3125 -99.070312 73.8125 -108.875 C 54.769531 -125.09375 45.25 -141.921875 45.25 -159.359375 C 45.25 -176.796875 50.710938 -190.226562 61.640625 -199.65625 C 72.578125 -209.082031 85.113281 -213.796875 99.25 -213.796875 C 113.394531 -213.796875 124.613281 -210.210938 132.90625 -203.046875 C 141.207031 -195.878906 145.359375 -185.132812 145.359375 -170.8125 C 145.359375 -161.382812 142.195312 -153.179688 135.875 -146.203125 C 129.5625 -139.234375 121.222656 -134.898438 110.859375 -133.203125 C 115.566406 -129.242188 120.28125 -125.1875 125 -121.03125 C 129.519531 -116.882812 133.664062 -112.363281 137.4375 -107.46875 C 145.726562 -96.34375 149.875 -83.050781 149.875 -67.59375 C 149.875 -56.84375 147.375 -47.128906 142.375 -38.453125 C 137.382812 -29.785156 130.882812 -22.484375 122.875 -16.546875 C 114.863281 -10.609375 105.859375 -6.035156 95.859375 -2.828125 C 85.867188 0.378906 76.539062 1.984375 67.875 1.984375 C 49.394531 1.984375 35.066406 -2.257812 24.890625 -10.75 C 13.003906 -20.363281 7.0625 -34.21875 7.0625 -52.3125 C 7.0625 -64.195312 10.925781 -75.695312 18.65625 -86.8125 C 26.394531 -97.9375 34.597656 -103.5 43.265625 -103.5 C 50.054688 -103.5 53.453125 -101.425781 53.453125 -97.28125 C 53.453125 -91.25 52.507812 -85.265625 50.625 -79.328125 C 48.738281 -73.390625 47.796875 -66.835938 47.796875 -59.671875 Z M 102.65625 -139.984375 C 113.40625 -150.734375 118.78125 -161.953125 118.78125 -173.640625 C 118.78125 -177.222656 116.894531 -180.238281 113.125 -182.6875 C 108.96875 -184.945312 104.628906 -186.078125 100.109375 -186.078125 C 89.929688 -186.078125 82.578125 -182.78125 78.046875 -176.1875 C 80.316406 -168.070312 83.664062 -161.1875 88.09375 -155.53125 C 92.519531 -149.875 97.375 -144.691406 102.65625 -139.984375 Z M 102.65625 -139.984375 "/></g></g></g><g fill="#ff914d" fill-opacity="1"><g transform="translate(162.043399, 291.981381)"><g><path d="M 91.0625 -61.9375 C 96.15625 -41.757812 104.734375 -31.671875 116.796875 -31.671875 C 122.640625 -31.671875 127.914062 -33.460938 132.625 -37.046875 C 137.34375 -40.628906 141.585938 -44.539062 145.359375 -48.78125 C 149.128906 -53.019531 152.425781 -56.929688 155.25 -60.515625 C 158.082031 -64.097656 160.722656 -65.890625 163.171875 -65.890625 C 165.617188 -65.890625 166.84375 -62.6875 166.84375 -56.28125 C 166.84375 -42.894531 160.617188 -29.976562 148.171875 -17.53125 C 135.734375 -5.09375 121.832031 1.078125 106.46875 0.984375 C 91.101562 0.890625 77.390625 -12.632812 65.328125 -39.59375 C 61.929688 -47.132812 58.726562 -54.769531 55.71875 -62.5 L 53.734375 -23.75 C 53.734375 -20.164062 53.539062 -16.628906 53.15625 -13.140625 C 52.78125 -9.660156 51.179688 -6.789062 48.359375 -4.53125 C 41.003906 1.3125 33.554688 4.234375 26.015625 4.234375 C 17.148438 4.234375 12.71875 -4.90625 12.71875 -23.1875 C 12.71875 -49.582031 15.828125 -77.203125 22.046875 -106.046875 C 28.273438 -134.890625 34.359375 -156.617188 40.296875 -171.234375 C 46.234375 -185.847656 50.851562 -195.601562 54.15625 -200.5 C 57.457031 -205.40625 60.050781 -208.421875 61.9375 -209.546875 C 63.820312 -210.679688 65.941406 -211.25 68.296875 -211.25 C 70.648438 -211.25 73.144531 -210.066406 75.78125 -207.703125 C 78.425781 -205.347656 81.253906 -201.765625 84.265625 -196.953125 C 87.285156 -192.148438 88.84375 -187.441406 88.9375 -182.828125 C 89.03125 -178.210938 88.273438 -173.6875 86.671875 -169.25 C 85.078125 -164.820312 82.957031 -160.484375 80.3125 -156.234375 C 77.675781 -151.992188 74.753906 -147.660156 71.546875 -143.234375 C 68.335938 -138.804688 65.132812 -134.046875 61.9375 -128.953125 L 59.109375 -105.203125 C 65.703125 -118.960938 75.410156 -128.203125 88.234375 -132.921875 C 92.753906 -134.609375 98.03125 -135.453125 104.0625 -135.453125 C 116.132812 -135.453125 125.375 -132.578125 131.78125 -126.828125 C 138.1875 -121.078125 141.390625 -112.640625 141.390625 -101.515625 C 141.390625 -90.398438 135.828125 -80.976562 124.703125 -73.25 C 113.585938 -65.519531 102.375 -61.75 91.0625 -61.9375 Z M 101.8125 -95.015625 C 101.8125 -101.804688 97.945312 -105.203125 90.21875 -105.203125 C 82.488281 -105.203125 74.097656 -97.753906 65.046875 -82.859375 C 62.398438 -78.523438 60.132812 -74.09375 58.25 -69.5625 C 77.863281 -70.695312 91.25 -75.976562 98.40625 -85.40625 C 100.675781 -88.414062 101.8125 -91.617188 101.8125 -95.015625 Z M 101.8125 -95.015625 "/></g></g></g><g fill="#ff914d" fill-opacity="1"><g transform="translate(306.265765, 291.981381)"><g><path d="M 42.421875 0.84375 C 23.566406 0.84375 14.140625 -16.78125 14.140625 -52.03125 C 14.140625 -71.257812 16.492188 -88.703125 21.203125 -104.359375 C 28.554688 -128.484375 36.851562 -140.546875 46.09375 -140.546875 C 51.5625 -140.546875 55.898438 -136.867188 59.109375 -129.515625 C 61.742188 -123.859375 62.96875 -118.300781 62.78125 -112.84375 C 62.78125 -105.300781 60.519531 -92.007812 56 -72.96875 C 51.65625 -56.375 49.484375 -46.097656 49.484375 -42.140625 C 49.484375 -38.179688 50.472656 -35.445312 52.453125 -33.9375 C 54.429688 -32.425781 56.785156 -31.671875 59.515625 -31.671875 C 62.253906 -31.671875 65.695312 -33.460938 69.84375 -37.046875 C 74 -40.628906 78.148438 -44.539062 82.296875 -48.78125 C 86.441406 -53.019531 90.257812 -56.929688 93.75 -60.515625 C 97.238281 -64.097656 99.640625 -65.890625 100.953125 -65.890625 C 103.597656 -65.890625 104.921875 -62.6875 104.921875 -56.28125 C 104.921875 -43.082031 98.273438 -30.210938 84.984375 -17.671875 C 71.691406 -5.140625 57.503906 1.03125 42.421875 0.84375 Z M 54.015625 -163.453125 C 48.921875 -170.992188 46.375 -179.097656 46.375 -187.765625 C 46.375 -196.441406 47.738281 -203.65625 50.46875 -209.40625 C 53.207031 -215.15625 55.800781 -219.394531 58.25 -222.125 C 60.707031 -224.863281 63.535156 -226.234375 66.734375 -226.234375 C 72.015625 -226.234375 76.820312 -222.320312 81.15625 -214.5 C 85.5 -206.675781 87.671875 -200.125 87.671875 -194.84375 C 87.671875 -185.039062 84.226562 -177.359375 77.34375 -171.796875 C 70.457031 -166.234375 62.679688 -163.453125 54.015625 -163.453125 Z M 54.015625 -163.453125 "/></g></g></g><g fill="#ff914d" fill-opacity="1"><g transform="translate(388.557327, 291.981381)"><g><path d="M 61.9375 -118.484375 C 71.738281 -129.609375 84.273438 -135.171875 99.546875 -135.171875 C 121.410156 -135.171875 135.265625 -126.3125 141.109375 -108.59375 C 142.804688 -103.3125 143.65625 -97.46875 143.65625 -91.0625 C 143.65625 -76.726562 138.988281 -62.585938 129.65625 -48.640625 C 120.320312 -34.691406 109.0625 -25.265625 95.875 -20.359375 L 99.265625 -20.359375 C 113.023438 -20.359375 126.972656 -25.445312 141.109375 -35.625 C 150.160156 -42.039062 157.28125 -48.6875 162.46875 -55.5625 C 167.65625 -62.445312 171.566406 -65.890625 174.203125 -65.890625 C 176.835938 -65.890625 178.15625 -62.875 178.15625 -56.84375 C 178.15625 -46.28125 173.632812 -35.628906 164.59375 -24.890625 C 151.007812 -9.429688 133.660156 -0.378906 112.546875 2.265625 C 97.273438 3.960938 86.4375 4.242188 80.03125 3.109375 C 73.625 1.972656 68.722656 0.5625 65.328125 -1.125 C 57.972656 -4.894531 54.296875 -10.550781 54.296875 -18.09375 C 54.296875 -22.25 55.144531 -26.019531 56.84375 -29.40625 C 71.738281 -29.40625 83.050781 -35.0625 90.78125 -46.375 C 98.507812 -57.6875 102.375 -71.828125 102.375 -88.796875 C 102.375 -92.941406 100.863281 -96.664062 97.84375 -99.96875 C 94.832031 -103.269531 90.828125 -104.921875 85.828125 -104.921875 C 80.828125 -104.921875 75.40625 -102.75 69.5625 -98.40625 C 63.71875 -94.070312 59.050781 -88.648438 55.5625 -82.140625 C 52.082031 -75.640625 48.925781 -69.234375 46.09375 -62.921875 C 43.269531 -56.609375 41.007812 -48.644531 39.3125 -39.03125 C 36.289062 -21.6875 32.847656 0.226562 28.984375 26.71875 C 25.117188 53.207031 22.710938 67.441406 21.765625 69.421875 C 20.828125 71.398438 19.414062 73.238281 17.53125 74.9375 C 15.644531 76.632812 13.664062 77.484375 11.59375 77.484375 C 7.820312 77.484375 4.710938 76.351562 2.265625 74.09375 C -4.523438 68.25 -8.484375 63.769531 -9.609375 60.65625 C -10.742188 57.550781 -11.3125 53.546875 -11.3125 48.640625 C -11.3125 30.160156 -8.195312 4.238281 -1.96875 -29.125 C 4.25 -62.5 14.992188 -97.191406 30.265625 -133.203125 C 32.523438 -138.472656 36.53125 -141.109375 42.28125 -141.109375 C 48.03125 -141.109375 53.546875 -136.019531 58.828125 -125.84375 C 60.328125 -123.207031 61.363281 -120.753906 61.9375 -118.484375 Z M 61.9375 -118.484375 "/></g></g></g><g fill="#38b6ff" fill-opacity="1"><g transform="translate(544.092133, 291.981381)"><g><path d="M 72.953125 -137.015625 C 85.585938 -137.109375 95.015625 -134.75 101.234375 -129.9375 C 107.460938 -125.132812 110.578125 -118.253906 110.578125 -109.296875 C 110.578125 -100.347656 107.890625 -92.710938 102.515625 -86.390625 C 97.140625 -80.078125 90.585938 -75.601562 82.859375 -72.96875 C 88.328125 -67.3125 93.273438 -61.554688 97.703125 -55.703125 C 102.140625 -49.859375 104.359375 -43.734375 104.359375 -37.328125 C 104.359375 -24.691406 99.359375 -14.929688 89.359375 -8.046875 C 79.367188 -1.171875 65.460938 2.265625 47.640625 2.265625 C 29.828125 2.265625 16.488281 -1.269531 7.625 -8.34375 C -1.226562 -15.414062 -5.65625 -23.425781 -5.65625 -32.375 C -5.65625 -41.332031 -3.441406 -49.488281 0.984375 -56.84375 C 5.421875 -64.195312 10.179688 -67.875 15.265625 -67.875 C 18.285156 -67.875 20.453125 -66.785156 21.765625 -64.609375 C 23.085938 -62.441406 25.539062 -56.175781 29.125 -45.8125 C 30.445312 -42.039062 32.613281 -38.457031 35.625 -35.0625 C 42.601562 -27.332031 53.632812 -23.46875 68.71875 -23.46875 C 66.457031 -30.632812 62.828125 -36.804688 57.828125 -41.984375 C 52.835938 -47.171875 47.890625 -52.21875 42.984375 -57.125 C 38.078125 -62.03125 33.738281 -67.257812 29.96875 -72.8125 C 26.207031 -78.375 24.328125 -84.925781 24.328125 -92.46875 C 24.328125 -106.050781 29.414062 -117.082031 39.59375 -125.5625 C 49.207031 -133.101562 60.328125 -136.921875 72.953125 -137.015625 Z M 71.828125 -84.5625 C 79.367188 -92.664062 83.140625 -99.164062 83.140625 -104.0625 C 83.140625 -106.332031 82.335938 -108.363281 80.734375 -110.15625 C 79.128906 -111.945312 76.816406 -112.84375 73.796875 -112.84375 C 70.785156 -112.84375 67.910156 -112.460938 65.171875 -111.703125 C 62.441406 -110.953125 60.226562 -110.390625 58.53125 -110.015625 C 58.53125 -102.847656 62.960938 -94.363281 71.828125 -84.5625 Z M 71.828125 -84.5625 "/></g></g></g><g fill="#38b6ff" fill-opacity="1"><g transform="translate(657.490524, 291.981381)"><g><path d="M 74.375 -30.828125 C 89.082031 -30.828125 103.316406 -36.671875 117.078125 -48.359375 C 122.171875 -52.691406 126.316406 -56.695312 129.515625 -60.375 C 132.722656 -64.050781 135.175781 -65.890625 136.875 -65.890625 C 139.507812 -65.890625 140.828125 -63.25 140.828125 -57.96875 C 140.828125 -52.695312 139.410156 -46.804688 136.578125 -40.296875 C 133.753906 -33.796875 129.046875 -27.429688 122.453125 -21.203125 C 106.234375 -5.929688 83.988281 1.703125 55.71875 1.703125 C 33.28125 1.703125 18.003906 -6.40625 9.890625 -22.625 C 7.066406 -28.28125 5.65625 -36.382812 5.65625 -46.9375 C 5.65625 -57.5 7.726562 -68.484375 11.875 -79.890625 C 16.019531 -91.296875 21.535156 -101.144531 28.421875 -109.4375 C 35.304688 -117.738281 43.269531 -124.195312 52.3125 -128.8125 C 61.363281 -133.4375 71.023438 -135.75 81.296875 -135.75 C 91.578125 -135.75 99.5 -133.203125 105.0625 -128.109375 C 110.625 -123.015625 113.40625 -116.414062 113.40625 -108.3125 C 113.40625 -100.207031 111.375 -93.5625 107.3125 -88.375 C 103.257812 -83.1875 98.03125 -78.847656 91.625 -75.359375 C 85.21875 -71.878906 78.097656 -68.769531 70.265625 -66.03125 C 62.441406 -63.300781 54.765625 -60.238281 47.234375 -56.84375 L 47.234375 -49.765625 C 47.421875 -42.984375 50.242188 -38.175781 55.703125 -35.34375 C 61.171875 -32.519531 67.394531 -31.015625 74.375 -30.828125 Z M 69.5625 -110.578125 C 59.757812 -110.578125 52.972656 -99.171875 49.203125 -76.359375 C 53.160156 -78.992188 56.882812 -81.347656 60.375 -83.421875 C 63.863281 -85.492188 66.925781 -87.472656 69.5625 -89.359375 C 75.21875 -93.503906 78.140625 -98.21875 78.328125 -103.5 C 78.328125 -108.21875 75.40625 -110.578125 69.5625 -110.578125 Z M 69.5625 -110.578125 "/></g></g></g><g fill="#38b6ff" fill-opacity="1"><g transform="translate(775.696311, 291.981381)"><g><path d="M 74.375 -30.828125 C 89.082031 -30.828125 103.316406 -36.671875 117.078125 -48.359375 C 122.171875 -52.691406 126.316406 -56.695312 129.515625 -60.375 C 132.722656 -64.050781 135.175781 -65.890625 136.875 -65.890625 C 139.507812 -65.890625 140.828125 -63.25 140.828125 -57.96875 C 140.828125 -52.695312 139.410156 -46.804688 136.578125 -40.296875 C 133.753906 -33.796875 129.046875 -27.429688 122.453125 -21.203125 C 106.234375 -5.929688 83.988281 1.703125 55.71875 1.703125 C 33.28125 1.703125 18.003906 -6.40625 9.890625 -22.625 C 7.066406 -28.28125 5.65625 -36.382812 5.65625 -46.9375 C 5.65625 -57.5 7.726562 -68.484375 11.875 -79.890625 C 16.019531 -91.296875 21.535156 -101.144531 28.421875 -109.4375 C 35.304688 -117.738281 43.269531 -124.195312 52.3125 -128.8125 C 61.363281 -133.4375 71.023438 -135.75 81.296875 -135.75 C 91.578125 -135.75 99.5 -133.203125 105.0625 -128.109375 C 110.625 -123.015625 113.40625 -116.414062 113.40625 -108.3125 C 113.40625 -100.207031 111.375 -93.5625 107.3125 -88.375 C 103.257812 -83.1875 98.03125 -78.847656 91.625 -75.359375 C 85.21875 -71.878906 78.097656 -68.769531 70.265625 -66.03125 C 62.441406 -63.300781 54.765625 -60.238281 47.234375 -56.84375 L 47.234375 -49.765625 C 47.421875 -42.984375 50.242188 -38.175781 55.703125 -35.34375 C 61.171875 -32.519531 67.394531 -31.015625 74.375 -30.828125 Z M 69.5625 -110.578125 C 59.757812 -110.578125 52.972656 -99.171875 49.203125 -76.359375 C 53.160156 -78.992188 56.882812 -81.347656 60.375 -83.421875 C 63.863281 -85.492188 66.925781 -87.472656 69.5625 -89.359375 C 75.21875 -93.503906 78.140625 -98.21875 78.328125 -103.5 C 78.328125 -108.21875 75.40625 -110.578125 69.5625 -110.578125 Z M 69.5625 -110.578125 "/></g></g></g><g fill="#38b6ff" fill-opacity="1"><g transform="translate(893.902537, 291.981381)"><g/></g></g></g></g></g><g transform="matrix(1, 0, 0, 1, 1059, 173)"><g clip-path="url(#89d96b8bbe)"><g clip-path="url(#f4c6171571)"><path stroke-linecap="round" transform="matrix(0.2241, -0.0204503, 0.0204503, 0.2241, 16.32581, 26.068947)" fill="none" stroke-linejoin="miter" d="M 32.931732 71.880626 C 141.767368 7.347829 250.620116 7.380504 359.458557 71.940923 " stroke="#38b6ff" stroke-width="47" stroke-opacity="1" stroke-miterlimit="4"/></g></g></g><g transform="matrix(1, 0, 0, 1, 1179, 172)"><g clip-path="url(#c1306c467b)"><g clip-path="url(#183bea21fb)"><path stroke-linecap="round" transform="matrix(0.2241, -0.0204503, 0.0204503, 0.2241, 15.898539, 25.828869)" fill="none" stroke-linejoin="miter" d="M 32.937602 71.88918 C 141.773238 7.356382 250.610276 7.370193 359.466005 71.932189 " stroke="#38b6ff" stroke-width="47" stroke-opacity="1" stroke-miterlimit="4"/></g></g></g></g></g></svg>